<svg width="82" height="78" viewBox="0 0 82 78" fill="none" xmlns="http://www.w3.org/2000/svg">
<g clip-path="url(#clip0_48_5)">
<path d="M81.9976 19.3472C81.8762 8.641 72.7138 0 61.4327 0H20.5672C15.9587 0 11.7048 1.44243 8.27689 3.87668V55.2676C8.27689 64.8709 16.4609 72.6537 26.5541 72.6537H75.5608C79.5267 69.0873 82 64.0354 82 58.4355V19.5645C82 19.4921 82 19.4196 81.9976 19.3472ZM63.649 38.2618C61.8446 39.3917 60.0735 40.5715 58.35 41.8033L59.0189 42.3785L66.5793 48.8864C67.7553 49.8986 67.9029 51.5698 66.9078 52.6159L65.2105 54.4025L64.9273 54.6992C63.9322 55.7453 62.1707 55.7725 60.9947 54.7581L52.2965 47.2696L51.8752 46.9073C51.0872 47.5935 50.3136 48.2977 49.5566 49.0178C49.4971 49.0744 49.4352 49.1287 49.3733 49.1763C48.7948 49.6495 48.0902 49.8737 47.3951 49.8737C46.2477 49.8737 45.1194 49.2669 44.5909 48.155L39.611 37.664C39.3253 37.0639 38.4255 37.0458 38.128 37.6436C36.9163 40.0847 33.5741 41.2237 30.9294 39.5457C30.4628 39.2491 30.0034 38.9411 29.5178 38.6762C25.3758 36.4118 22.6097 32.1252 22.712 27.2318C22.762 24.8452 23.5071 22.6124 24.7616 20.7058C27.104 17.1416 31.227 14.7277 35.9165 14.6191C39.5467 14.5353 42.8556 15.8101 45.3336 17.9432C45.6479 18.2104 45.9478 18.4957 46.2311 18.7924C46.5739 18.4323 46.9381 18.0949 47.3237 17.7757C49.8089 15.7196 53.0892 14.5081 56.6694 14.6213C63.7608 14.8455 69.5263 20.3412 69.7453 27.0869C69.8715 30.9342 68.2218 34.4168 65.52 36.8511C64.9416 37.3719 64.3155 37.8429 63.649 38.2618Z" fill="#84CCB9"/>
<path d="M52.0671 47.1987C51.1816 47.9052 50.3127 48.6321 49.4605 49.3771C48.6726 50.0632 47.9013 50.7652 47.1443 51.4853C46.5325 52.0672 45.7517 52.3412 44.9805 52.3412C43.8331 52.3412 42.7047 51.7343 42.1763 50.6225L37.1963 40.1338C36.9107 39.5314 36.0109 39.5156 35.7157 40.1111C34.5017 42.5521 31.1595 43.6934 28.5172 42.0132C28.0506 41.7166 27.5912 41.4109 27.1055 41.1437C22.9611 38.8815 20.1974 34.595 20.2998 29.7016C20.376 26.1465 21.9899 22.9287 24.5322 20.6349C23.2777 22.5415 22.5327 24.7742 22.4827 27.1609C22.3803 32.0543 25.1464 36.3409 29.2884 38.6053C29.774 38.8702 30.2335 39.1782 30.7 39.4748C33.3447 41.1527 36.6869 40.0137 37.8986 37.5727C38.1961 36.9749 39.096 36.993 39.3816 37.5931L44.3616 48.0841C44.89 49.1959 46.0184 49.8028 47.1657 49.8028C47.8608 49.8028 48.5655 49.5786 49.1439 49.1054C49.2058 49.0578 49.2677 49.0035 49.3272 48.9469C50.0842 48.2268 50.8578 47.5225 51.6458 46.8364L52.0671 47.1987Z" fill="#3C8372"/>
<path d="M65.2906 36.7802C64.2551 38.3584 62.8697 39.708 61.2367 40.7293C60.4131 41.2456 59.5966 41.7709 58.7896 42.3076L58.1207 41.7324C59.8441 40.5006 61.6152 39.3208 63.4196 38.1909C64.0861 37.772 64.7122 37.301 65.2906 36.7802Z" fill="#424242"/>
<path d="M65.2105 54.4025C65.101 54.672 64.9392 54.9278 64.7249 55.1543L62.7444 57.2375C61.747 58.2837 59.9878 58.3109 58.8095 57.2987L49.6899 49.448L49.3733 49.1762C49.4352 49.1287 49.4971 49.0743 49.5566 49.0177C50.3136 48.2976 51.0872 47.5934 51.8752 46.9073L52.2965 47.2696L60.9947 54.758C62.1707 55.7725 63.9322 55.7453 64.9273 54.6991L65.2105 54.4025Z" fill="#3C8372"/>
<path d="M66.9078 52.6159L65.2106 54.4025L64.9273 54.6992C63.9322 55.7453 62.1707 55.7725 60.9948 54.7581L52.2965 47.2696L51.8752 46.9073C51.0872 47.5934 50.3136 48.2977 49.5566 49.0178C49.4971 49.0744 49.4352 49.1287 49.3733 49.1763C48.7948 49.6495 48.0902 49.8737 47.3951 49.8737C46.2477 49.8737 45.1194 49.2668 44.5909 48.155L39.611 37.664C39.3253 37.0639 38.4255 37.0458 38.128 37.6436C36.9163 40.0847 33.5741 41.2236 30.9294 39.5457C30.4629 39.2491 30.0034 38.9411 29.5178 38.6762C25.3758 36.4118 22.6097 32.1252 22.7121 27.2318C22.762 24.8451 23.5071 22.6124 24.7616 20.7058C27.104 17.1416 31.227 14.7277 35.9165 14.619C39.5467 14.5353 42.8556 15.8101 45.3336 17.9432C45.6479 18.2104 45.9478 18.4957 46.2311 18.7924C46.5739 18.4323 46.9381 18.0949 47.3237 17.7756C49.8089 15.7196 53.0892 14.5081 56.6694 14.6213C63.7609 14.8455 69.5263 20.3412 69.7453 27.0869C69.8715 30.9342 68.2218 34.4168 65.52 36.8511C64.9416 37.3719 64.3155 37.8429 63.649 38.2618C61.8446 39.3917 60.0735 40.5715 58.35 41.8033L59.019 42.3785L66.5793 48.8864C67.7553 49.8986 67.9029 51.5698 66.9078 52.6159Z" fill="white"/>
<path d="M62.9467 29.0955C63.5561 29.6752 63.5561 30.6149 62.9467 31.1923C62.642 31.4822 62.2445 31.6271 61.8446 31.6271C61.4447 31.6271 61.0471 31.4822 60.7424 31.1923L57.7121 28.3097L54.6818 31.1923C54.3771 31.4822 53.9771 31.6271 53.5772 31.6271C53.1797 31.6271 52.7798 31.4822 52.4751 31.1923C51.8657 30.6149 51.8657 29.6752 52.4751 29.0955L55.5054 26.2129L52.4751 23.3303C51.8657 22.7506 51.8657 21.8109 52.4751 21.2312C53.0845 20.6537 54.0724 20.6537 54.6818 21.2312L57.7121 24.1138L60.7424 21.2312C61.3518 20.6537 62.3373 20.6537 62.9467 21.2312C63.5561 21.8109 63.5561 22.7506 62.9467 23.3303L59.9164 26.2129L62.9467 29.0955Z" fill="#3C8372"/>
<path d="M75.5608 72.6537C71.8759 75.9665 66.9031 78 61.4328 78H20.5673C9.21003 78 0 69.2412 0 58.4354V19.5645C0 13.1426 3.2541 7.4431 8.27689 3.87665V55.2675C8.27689 64.8709 16.4609 72.6537 26.5541 72.6537H75.5608Z" fill="#3C8372"/>
</g>
<defs>
<clipPath id="clip0_48_5">
<rect width="82" height="78" fill="white"/>
</clipPath>
</defs>
</svg>
