<svg width="81" height="81" viewBox="0 0 81 81" fill="none" xmlns="http://www.w3.org/2000/svg">
<path d="M26.325 6.75H54.675C65.475 6.75 74.25 15.525 74.25 26.325V54.675C74.25 59.8666 72.1876 64.8456 68.5166 68.5166C64.8456 72.1876 59.8666 74.25 54.675 74.25H26.325C15.525 74.25 6.75 65.475 6.75 54.675V26.325C6.75 21.1334 8.81236 16.1544 12.4834 12.4834C16.1544 8.81236 21.1334 6.75 26.325 6.75ZM25.65 13.5C22.4276 13.5 19.3372 14.7801 17.0587 17.0587C14.7801 19.3372 13.5 22.4276 13.5 25.65V55.35C13.5 62.0662 18.9337 67.5 25.65 67.5H55.35C58.5724 67.5 61.6628 66.2199 63.9413 63.9413C66.2199 61.6628 67.5 58.5724 67.5 55.35V25.65C67.5 18.9337 62.0662 13.5 55.35 13.5H25.65ZM58.2188 18.5625C59.3376 18.5625 60.4107 19.007 61.2019 19.7981C61.993 20.5893 62.4375 21.6624 62.4375 22.7812C62.4375 23.9001 61.993 24.9732 61.2019 25.7644C60.4107 26.5555 59.3376 27 58.2188 27C57.0999 27 56.0268 26.5555 55.2356 25.7644C54.4445 24.9732 54 23.9001 54 22.7812C54 21.6624 54.4445 20.5893 55.2356 19.7981C56.0268 19.007 57.0999 18.5625 58.2188 18.5625ZM40.5 23.625C44.9755 23.625 49.2677 25.4029 52.4324 28.5676C55.5971 31.7323 57.375 36.0245 57.375 40.5C57.375 44.9755 55.5971 49.2677 52.4324 52.4324C49.2677 55.5971 44.9755 57.375 40.5 57.375C36.0245 57.375 31.7323 55.5971 28.5676 52.4324C25.4029 49.2677 23.625 44.9755 23.625 40.5C23.625 36.0245 25.4029 31.7323 28.5676 28.5676C31.7323 25.4029 36.0245 23.625 40.5 23.625ZM40.5 30.375C37.8147 30.375 35.2393 31.4417 33.3405 33.3405C31.4417 35.2393 30.375 37.8147 30.375 40.5C30.375 43.1853 31.4417 45.7607 33.3405 47.6595C35.2393 49.5583 37.8147 50.625 40.5 50.625C43.1853 50.625 45.7607 49.5583 47.6595 47.6595C49.5583 45.7607 50.625 43.1853 50.625 40.5C50.625 37.8147 49.5583 35.2393 47.6595 33.3405C45.7607 31.4417 43.1853 30.375 40.5 30.375Z" fill="white"/>
</svg>
